<?xml version="1.0" encoding="UTF-8"?>
<svg id="Layer_1" data-name="Layer 1" xmlns="http://www.w3.org/2000/svg" xmlns:xlink="http://www.w3.org/1999/xlink" viewBox="0 0 352 352">
  <defs>
    <style>
      .cls-1 {
        fill: none;
      }

      .cls-2 {
        fill: #785032;
      }

      .cls-3 {
        fill: #785032;
      }

      .cls-4 {
        stroke: #000;
        stroke-miterlimit: 10;
      }

      .cls-4, .cls-5 {
        fill: #fff;
      }

      .cls-6 {
        fill: #750014;
      }

      .cls-7 {
        fill: #ebd7bd;
      }

      .cls-8 {
        fill: #ebd7bd;
      }

      .cls-9 {
        clip-path: url(#clippath);
      }
    </style>
    <clipPath id="clippath">
      <circle class="cls-1" cx="176" cy="176" r="176"/>
    </clipPath>
  </defs>
  <circle class="cls-4" cx="176" cy="176" r="176"/>
  <g class="cls-9">
    <g>
      <g>
        <path class="cls-3" d="M156.58,220.85c-4.73.05-9.06-.41-13.01-1.24,1.98,3.37,6.5,7.62,16.67,7.34,9.57-.27,14.1-4.99,16.25-9.23-5.57,1.86-12.15,3.05-19.9,3.13Z"/>
        <path class="cls-7" d="M223.96,124.67c-.11,5.42-.61,9.19-.73,10.18l-.02.17c-4.23-1.18-10.93-2.67-20.39-3.64-17.94-1.84-36.87-.02-36.87-.02l-27.88,1.7s-5.21-1.66-22.46-1.84c-10.37-.11-19.51,1.67-25.15,3.1,0,0-.46-3.78-.62-8.86-3.67,2.24-17.54,12.32-16.59,36.35,1.25,31.6,39.98,38.96,39.98,38.96,0,0,21,20.08,43.37,20.08,32.71,0,44.99-21.78,44.99-21.78,0,0,34.77-10.05,39.84-34.01,5.49-25.94-14-38.91-17.45-40.39Z"/>
        <path class="cls-5" d="M88.81,326.79l.4,1.32c.31,3.77.62,5.86.62,5.86,0,0,38.34,11.76,79.23,9.9,44.27-2.01,74.5-17.87,74.5-17.87l3.69-2.4c-.06-5.71-.39-11.3-.95-16.73l-8.58-41.2c-2.52-8.05-5.29-15.31-7.98-21.6l.27-.59c2.04,1.08,4.35,2.16,6.34,2.79l.19-.37c3.24-2.62,9.45-8.24,13.88-15.93,6.2-10.76,7.93-20.24,7.93-20.24,0,0-9.83-5.79-22.38-10.11-7.26-2.5-15.62-3.95-22.72-5.2-6.59,3.17-11.69,4.65-11.69,4.65,0,0-12.28,21.78-44.99,21.78-22.37,0-43.37-20.08-43.37-20.08,0,0-1.27-.24-3.34-.82-6.41,2.71-19.51,6.48-31.72,22.39-5.84,7.61-18.06,31.62-18.06,31.62,0,0,8.79,8.47,17.73,11.37,2.03.66,3.97,1.16,5.75,1.53,1.19.25,2.32.45,3.35.61,1.04.16,1.99.27,2.83.35.42.04.82.07,1.19.1l.88.28s0,0,0-.01h0c-.51,3.51-.93,7.2-1.23,11.06l-1.79,47.54Z"/>
        <path class="cls-5" d="M138.14,166.48c.7,2.41,2,6.34,4.07,10.69,3.03,6.35,7.69,13.05,9.33,15.32,1.49-.03,4.36-.09,6.93-.13,1.72-.03,3.95-.12,5.27-.18,1.41-2.85,5.39-11.09,6.87-16.55,1.07-3.97,1.55-7.9,1.76-10.36-7.28-3.38-15.36-5.47-17.65-5.93-1.43.44-10.54,3.35-16.57,7.14Z"/>
        <path class="cls-3" d="M329.81,192.26c-13.63-13.67-36.34-11.78-46.51-8.46-15.28,4.43-31.94,14.88-31.94,14.88l-4.86,5.08c7.11,3.16,11.86,5.95,11.86,5.95,0,0-1.72,9.48-7.93,20.24-4.43,7.68-10.65,13.31-13.88,15.93l-.19.37c-2-.62-4.3-1.71-6.34-2.79l-.27.59c2.69,6.29,5.46,13.55,7.98,21.6l.23.65c-.6,2.31-.77,3.8-.77,3.8,0,0-11.43,7.53-8.92,20.91,2.51,13.38,11.57,16.17,17.29,15.61.24-.03.47-.05.7-.08l.05.3c.5,4.89.81,9.92.91,15.05,13.74-6.71,28.44-14.66,40.66-23.25,25.15-17.69,72.06-76.19,41.94-106.4Z"/>
        <path class="cls-3" d="M115.84,293.02v-.19s1.1-4.74,1.1-4.74c0,0,3.34-9.66-.66-11.33-4.35-1.81-6.16,1.83-7.49,4.83-1.33,3-4.5,6.99-4.5,6.99,0,0-4.33-.5-9.33,1.16-.31.11-.63.22-.94.35l-.1.06c-.13-1.81-.65-5.36-2.62-9.07-.2-.38-.41-.74-.62-1.09l-.06-.77c.3-3.86.72-7.55,1.23-11.06l-.89-.27c-2.94-.22-7.72-.84-13.13-2.59-7.12-2.31-14.15-8.16-16.71-10.44l-.33.37c-1.38,2.84-7.56,16.7-6.22,33.6,1.38,17.48,20.5,27.69,23.52,29.2l.23.08c1.32,2.18,3.69,4.94,7.93,7.39,3.4,1.96,9.73,2.22,9.73,2.22,0,0,13.76,11.25,17.32,6.99,5.17-6.16-8.82-15.65-8.82-15.65l.16-.03c3.08,1.38,16.04,6.79,18.83,1.37,3.16-6.16-12.14-15.02-12.14-15.02l.14-.16c3.61,1.08,15.93,4.15,16.5-3.81.55-7.68-6.93-8.64-12.09-8.4Z"/>
        <path class="cls-2" d="M210.53,56.4c-7.59-2.29-15.08-.04-20.57,2.68-8.49-4.17-19.05-6.97-32.17-7.68-17.36-.94-30.35,2.47-40.06,8.36-5.73-2.35-13.56-4.13-21.1-1.18-14.6,5.72-17.97,20.12-13.03,32.83,1.73,4.44,5.09,7.87,7.98,10.17-3.28,17.28-1.13,32.26-1.15,31.88l.02.86c5.64-1.43,14.78-3.21,25.15-3.1,17.26.18,22.46,1.84,22.46,1.84l27.88-1.7s18.93-1.82,36.87.02c9.46.97,16.16,2.45,20.39,3.64l.02-.17c.29-2.29,2.58-19.44-2.56-37.63,2.22-2.39,4.41-5.49,5.51-9.15,3.9-13.06-.62-27.14-15.63-31.67Z"/>
        <path class="cls-8" d="M108.47,69.29c-2.66,2.86-3.82,2.34-7.88,8.27-1.95,2.84-3.33,6.16-4.46,10.68l-.36-.59c-2.13-2.19-6.62-8.08-2.02-15.18,3.9-6.01,11.74-4.21,14.62-3.3l.11.12Z"/>
        <path class="cls-8" d="M199.6,68.02c2.88,2.64,5.34,5.47,7.33,7.99,2.13,2.71,4.69,6.06,6.66,9.37l.16-.09c1.94-2.35,5.95-8.59.8-15.29-4.37-5.68-12.04-3.26-14.84-2.11l-.1.13Z"/>
        <path class="cls-5" d="M108.92,131.12s-4.26-34.98,14.78-34.66c19.04.31,17.94,34.77,17.94,34.77l-5.88,1.82-26.88-1.47"/>
        <path class="cls-5" d="M201.28,130.19c-.03-6.45-1.15-34.11-18.19-34.39-19.29-.32-14.98,35.61-14.98,35.61,0,0,15.9-1.37,33.15-.52v-.7Z"/>
        <g>
          <polygon class="cls-6" points="169.09 262.03 181.44 262.03 181.48 287.28 169.49 287.16 169.09 262.03"/>
          <g>
            <polygon class="cls-6" points="128.25 245.9 126.96 275.94 126.46 287.41 139.06 287.86 137.88 246.1 128.25 245.9"/>
            <polygon class="cls-6" points="141.43 245.98 142.5 280.17 152.27 280.05 151.56 246.69 141.43 245.98"/>
            <polygon class="cls-6" points="154.94 246.1 155.76 289.37 165.12 288.3 164.77 245.98 154.94 246.1"/>
            <polygon class="cls-6" points="168.88 257.35 181.77 257.17 181.77 245.86 168.76 246.28 168.88 257.35"/>
            <polygon class="cls-6" points="207.2 244.33 184.58 244.92 185.76 254.87 208.5 254.27 207.2 244.33"/>
            <polygon class="cls-6" points="186.71 258.28 187.53 289.33 197.29 288.98 197.18 257.8 186.71 258.28"/>
          </g>
        </g>
      </g>
      <g>
        <path d="M331.73,190.35c-13.89-13.93-37.03-13.1-49.23-9.14-14.05,4.08-32.43,14.09-39.76,18.39-1.9-.76-3.9-1.52-5.98-2.23-4.86-1.67-10.09-2.87-15.18-3.85.29-.19.59-.37.87-.56,14.34-9.51,21.62-20.32,22.49-32.29,1.75-23.89-14.39-37.69-18.68-41.06-.18-6.18-.94-13.64-2.92-21.35,2.58-2.62,5.06-5.95,6.27-10.01,2.16-7.23,1.87-14.58-.83-20.69-3-6.8-8.67-11.63-16.42-13.97-8.13-2.45-16.74.14-22.8,3.03-9.33-4.34-20.13-6.96-31.65-7.58-14.27-.76-27.01,2.78-37.54,9.1-6.23-2.83-16.62-5.8-25.8-2.2-7.53,2.95-12.8,8.22-15.24,15.24-2.19,6.31-1.89,13.66.84,20.69,1.78,4.57,5.9,9.06,9.48,12.13-1.4,6.98-1.91,13.5-2.02,18.66-4.66,3.96-21.47,20.29-15.64,45.53,2.87,12.44,11.53,23.01,25.05,30.56,1.46.81,2.97,1.59,4.5,2.32-7.06,3.44-16.57,9.33-25.45,20.9-13.23,17.24-18.75,32.63-18.75,32.63l.77.74c-2.07,4.59-7.18,17.76-5.93,33.7.66,8.4,5.28,16.5,13.34,23.43,4.78,4.11,9.4,6.64,11.18,7.55,1.56,2.36,4.12,5.12,8.34,7.55.6.35,1.21.66,1.82.94.31,3.66.83,7.29.83,7.29l1.43.44c.36.11,33.72,10.2,71.11,10.2,2.95,0,5.94-.06,8.93-.2,44.29-2.01,72.19-16.66,75.49-18.14,3.62-1.62,28.77-15.96,44.77-27.21,10.34-7.28,22.75-20.07,32.38-33.38,8.41-11.63,18.76-29.16,20.28-46.62,1.07-12.29-2.41-22.56-10.36-30.53ZM85.84,90.54c-7.01-14.58,1.64-25.79,11.67-29.72,8.78-3.44,20.77,3.36,25.64,5.94l-.17-4.51c9.71-5.77,21.49-9.19,34.68-8.49,9.62.52,18.74,2.51,26.79,5.79l.77,4.95c4.64-2.96,15.58-8.53,24.61-5.81,10.32,3.11,18.65,13.19,14.02,28.68-1.62,5.42-7.36,10.52-9.88,12.51l4.85,2.01c2.66,13.71,1.29,26.28.68,30.56-3.9-1.39-9.05-2.64-15.76-3.36-.29-7.49-1.79-23.9-9.62-31.23-3.06-2.86-6.76-4.35-10.99-4.42-4.23-.06-7.85,1.31-10.71,4.1-4.18,4.08-7.83,10.61-8.44,20.41-.22,3.52-.15,6.73-.03,9.11-3.34-.58-6.94-.9-10.47-.91l-1.71-.02c-2.79.08-5.32.3-7.6.64-.33-7.25-1.99-21.3-9.57-28.3-3.02-2.79-6.67-4.23-10.86-4.3-4.19-.06-7.75,1.27-10.57,3.99-8.1,7.8-8.77,25.3-8.71,31.26-4.23.47-7.6,1.19-10.27,2.01-.43-3.97-1.27-14.73.84-26.9l3.03-3.24c-2.66-1.78-9.45-4.98-12.23-10.76ZM186.11,105.58c-9.93.62-9.44,17.48-9.05,22.74-2.57.09-4.83.21-6.63.32-.43-7.84.11-22.29,5.88-27.92,1.77-1.73,3.91-2.57,6.52-2.57.07,0,.14,0,.2,0,2.82.05,5.21,1.02,7.29,2.96,2.31,2.16,4.19,5.51,5.59,9.87-2.05-3.37-5.15-5.7-9.81-5.41ZM197.13,128.55l-3.71-.2c-2.13-.09-4.21-.13-6.22-.16-.27-2.51-.67-9.59,3.55-9.71,5.8-.16,6.42,6.66,6.37,10.07ZM154.71,159.34c2.29.46,10.37,2.55,17.65,5.93-.21,2.46-.68,6.4-1.76,10.36-1.48,5.46-5.46,13.7-6.87,16.55-1.32.06-3.54.15-5.27.18-2.57.04-5.44.1-6.93.13-1.63-2.27-6.3-8.97-9.33-15.32-2.07-4.34-3.37-8.28-4.07-10.69,6.03-3.79,15.14-6.7,16.57-7.14ZM117.55,128.86c-.63,0-1.27,0-1.93,0-1.51,0-2.94.03-4.31.08-.56-7.19-.37-21.85,5.7-27.68,1.79-1.73,3.97-2.55,6.64-2.5,2.79.05,5.14.99,7.19,2.88,2.48,2.29,4.48,5.97,5.89,10.8-2-3.86-5.21-6.67-10.32-6.36-10.29.63-9.25,18.65-8.87,22.79ZM133.13,119.88c3.07-.22,4.75,1.7,5.65,4.06.13,1.47.2,2.78.24,3.88-2.07.56-3.85,1.23-5.36,1.97-1.05-.14-2.3-.28-3.75-.41-.35-2.93-.66-9.23,3.22-9.5ZM77.1,167.01c-4.26-18.46,4.86-31.31,10.6-37.28.1,2.41.25,3.93.27,4.23l.02.15c-3.02,1.74-3.57,3.05-3.57,3.05.13-.05,14.52-3.74,31.15-3.57,5.35.06,9.51.26,12.7.5-.81,1.17-1.2,2.36-1.2,3.49-.02,4.89,10.12,6.75,15.65,8.68,3.89,1.36,7.17,2.77,9.05,3.62.03,2.1.06,4.88.07,7.09-3.77,1.01-12.42,3.63-17.88,7.78l-.25.23c.03.13.37,1.65,1.12,4.05-3.58.74-7.79,1.25-12.65,1.24-17.54-.02-28.8-7.24-28.8-7.24.34.49,8.68,11.95,28.79,11.98,1.68,0,3.28-.06,4.82-.16,1.28,2.6,3.55,7.93,6.89,12.66,4.59,6.49,10.79,12.37,23.43,12.37,17.11,0,26.67-9.65,31.68-23.84.73,0,1.46-.02,2.2-.04,1.24-.05,2.49-.12,3.73-.24,19.04-1.75,26.59-9.59,26.91-9.92,0,0-18.4,4.38-27.34,5.2-6.52.6-12.95.11-18.77-.87.6-3.94.69-6.93.7-7.31l.02-.04c-7-3.56-15.38-5.36-19.38-6.07-.02-2.63-.06-5.97-.09-8.05,1.6-.83,3.65-1.82,5.93-2.75,8.3-3.36,16.1-4.36,16.25-9.7.03-1.26-.48-2.42-1.42-3.46,7.11-.08,16.24.07,24.82.95,17.22,1.77,28.14,5.7,28.21,5.74,0,0-1.13-1.94-5.21-4.27v-.06c.06-.42.52-3.71.69-8.77,5.7,5.35,14.61,16.46,13.89,33.38-.98,23.14-31.44,33.48-36.94,35.18.07-1.92-.17-3.15-.17-3.15-.09.26-9.57,26.03-45.75,26.39-.22,0-.42,0-.63,0-27.86,0-53.72-29.64-53.72-29.64,1.36,2.45,3.8,6.23,7.29,10.42-7.06-2.02-27.99-9.79-33.11-31.96ZM159.28,229.33c.33,0,.67,0,1.02-.01,10.21-.29,15.32-5.21,17.87-9.75,2.64-.9,5.06-1.93,7.25-3.04-.27,1.8-1.03,3.84-2.99,6.97-3.95,6.27-11.01,9.86-20.99,10.66-9.15.73-16.46-1.2-21.73-5.76-4.36-3.77-6.4-8.18-7.37-11.37,2.86,1.45,5.92,2.7,9.17,3.67,2.23,3.85,7.15,8.63,17.77,8.63ZM148.67,222.31c2.56.39,5.21.62,7.97.62.23,0,.46,0,.69,0,4.64-.05,8.84-.5,12.69-1.23-2.3,1.61-5.48,2.76-9.85,2.88-5.73.16-9.28-.91-11.5-2.26ZM64.76,249.1c3.06,2.22,9.54,6.74,14.99,9.36,4.08,1.96,8.03,3.01,11.05,3.58-.17.74-.33,1.5-.49,2.26-2.87-.29-6.83-.94-11.24-2.37-6.49-2.1-13.06-7.49-15.66-9.77.32-.77.76-1.81,1.34-3.06ZM111.46,333.2c-.15.18-1.98.5-6.94-2.4-3.69-2.16-6.52-4.07-6.55-4.1-.06,0-5.76-.48-10.56-3.24-7.42-4.28-7.91-10.35-7.94-10.56l-2.77,1.31-.53.07c-6.01-3.61-18.22-12.51-19.26-25.62-1.06-13.38,2.84-24.9,4.95-30.02,3.51,2.86,9.28,7.01,15.22,8.94,4.77,1.55,9.06,2.25,12.19,2.57-.35,2.29-.63,4.69-.86,7.14-1.97-.53-3.75-.76-3.75-.76,1.93,1.74,3.46,3.65,4.54,5.69,1.8,3.39,2.24,6.65,2.35,8.2-3.31,3.04-4.25,8.56-4.25,8.56.04-.04,4.04-4.21,8.4-5.66,4.39-1.46,8.27-1.06,8.3-1.06l1.31.15.82-1.04c.14-.17,3.37-4.27,4.8-7.5,1.85-4.16,2.77-4.3,4.42-3.61.99.41.47,5.06-.66,8.36l-1.18,5.02c-1.99.48-3.47,1-3.85,1.08l1.94,2.49c2.31-.5,9.59-1.35,12.59,1.25.67.58,1.54,1.64,1.36,4.09-.1,1.37-.67,1.91-1.15,2.23-2.04,1.35-5.98,1.07-9.36.31-1.55-.91-2.73-1.35-3.07-1.03l-1.56,1.4-1.88,1.5c.37.13,1.86.86,3.83,1.61,5.1,3.22,10.08,8.57,8.96,10.74-1,1.94-9.76.47-18.16-3.55l-.25,5.1c.07.03.15.07.23.11l-.03.05c2.14,1.45,8.38,6.45,8.9,10.19.11.78-.06,1.39-.56,1.98ZM242.41,323.04c-1.86.95-31.42,15.65-73.42,17.56-19.99.91-39.5-1.51-54.06-4.17.05-.06.11-.11.16-.17,1.35-1.61,1.91-3.58,1.62-5.68-.29-2.04-1.37-4.06-2.76-5.9,1.43.28,2.88.46,4.25.46,3.17,0,5.95-.93,7.34-3.65,1.67-3.26.39-7.01-3.8-11.16,1.94-.15,3.79-.6,5.28-1.58,1.96-1.29,3.09-3.32,3.27-5.85.3-4.22-1.46-6.69-2.99-8.01-2.26-1.96-5.57-2.32-8.73-2.07l.64-2.75c.75-2.22,3.62-11.81-2.03-14.17-6.65-2.76-9.5,3.64-10.57,6.06-.82,1.85-2.49,4.22-3.46,5.52-1.51-.03-4.11.07-7.07.81-.32-2.16-1.04-5.17-2.7-8.28-.1-.2-.26-.38-.43-.56h.01c2.7-34.65,15.07-55.42,15.19-55.63,0,0-9.94,11.28-15.91,32.51-2.73-.5-6.36-1.44-10.08-3.23-5.37-2.58-12.06-7.32-14.75-9.28,2.65-4.9,6.62-11.38,12.43-18.94,9.96-12.98,20.47-18.19,27.48-21.23,4.83,1.98,9.16,3.41,11.39,4.1,2.41,2.11,5.07,4.16,7.96,6.04.72,4.04,2.97,12.17,9.88,18.18,5.44,4.72,12.55,7.11,21.18,7.11,1.32,0,2.68-.06,4.07-.17,22.77-1.83,27.77-16.62,28.72-25.35,2.67-1.78,4.92-3.63,6.75-5.4,1.66-1.6,2.87-3.29,3.74-4.96,1.91-.65,7.81-2.75,14.17-6.01,6.55,1.16,13.7,2.52,20.01,4.69,4.47,1.54,8.42,3.13,11.69,4.57-.37,1.97-2.06,9.44-7.83,18.85-2.69,4.39-6.63,8.47-10.4,11.78-7.37-12.72-14.37-17.92-14.37-17.92.12.18,12.76,21.6,21.66,49.67-.03.27-.06.52-.1.72-2.87,2.23-12.29,9.32-9.92,21.93,2.45,13.1,10.98,17.62,18.19,17.62h.01c.41,4.22.68,7.96.76,12.33l-2.49,1.62ZM234.69,243.09c-.81-.35-1.68-.76-2.62-1.23,4.22-3.62,8.88-8.31,12.06-13.5,5.41-8.82,7.5-16.11,8.23-19.38,1,.5,1.86.95,2.53,1.32-.76,3.08-2.83,10.13-7.28,17.85-4.08,7.09-9.82,12.38-12.92,14.94ZM230.6,290.59c-2.18-11.62,7.49-18.23,7.9-18.5l.92-.61.13-1.1s.56-4.62,3.01-10.03c3.31-7.33,9.75-11.18,9.8-11.22,2.73-.43,4.55-.95,4.73-1,0,0-8.31-1.39-15.91-3.12,3.41-3.15,7.88-7.92,11.31-13.87,4.1-7.12,6.3-13.65,7.36-17.48,8.91,4.93,24.64,14.84,27.6,22.23,3.94,9.85-6.59,20.77-13.56,28-4.78,4.96-12.55,9.32-15.3,10.79-1.03-1.96-1.92-3.3-1.99-3.42,0,0,1.49,11.82.36,15.47-1.01,3.28-3.42,5.35-3.44,5.36l.03.04c-2.94-.47-5.78,1.17-5.78,1.17.06.02,5.64,1.98,6.76,5.97l3.92-1.1.84,1.1c1.25-1.01,3.75-3.39,4.83-2.45.36.31.77.99.74,1.9-.03,1.16-.77,2.31-2.12,3.34-2.86,2.17-7.18.09-7.21.08l-1.13-.55-1.09.6s-2.93,1.59-8,2.08c-2,.19-12.08.45-14.73-13.69ZM270.98,214.77c-.4-.25-.79-.5-1.18-.74.43-3.81.82-7.17,1.21-9.96,4.46.09,9.69.24,15.22.44-.3,3.22-.66,6.77-1.09,10.58-4.58-.17-9.32-.28-14.15-.31ZM284.52,220.33c-.16,1.31-.33,2.66-.51,4.02-1.6-1.42-3.34-2.82-5.13-4.16,1.9.04,3.78.08,5.64.14ZM305.49,221.48c-.56,3.64-1.19,7.46-1.9,11.42-3.96-.31-7.5-.5-12.72-.73-.52-.88-1.14-1.76-1.85-2.65.42-3.19.76-6.16,1.06-8.98,5.41.24,10.57.56,15.41.94ZM290.61,215.32c.36-3.7.67-7.19,1.02-10.61,5.34.22,10.81.47,16.03.76-.39,3.33-.85,6.96-1.4,10.84-4.92-.38-10.15-.72-15.65-.99ZM292.91,238.29c3.31.15,6.52.32,9.58.5-.68,3.47-1.42,7.04-2.22,10.66-2.88-.16-5.95-.31-9.21-.44,1.51-3.45,2.31-7.06,1.86-10.72ZM299.07,254.63c-.74,3.11-1.53,6.26-2.37,9.43-4.47-.28-9.05-.47-13.73-.56.24-1.07.47-2.15.71-3.26,1.63-1.93,3.22-4,4.62-6.17,3.84.14,7.43.33,10.76.56ZM295.19,269.56c-.94,3.31-1.94,6.64-3,9.97-.4-.09-.81-.15-1.26-.17-3.66-.16-7.62-.24-11.77-.27.85-3.18,1.67-6.39,2.48-9.76,4.68-.02,9.22.06,13.56.23ZM261.85,285.77c0-.19,0-.38,0-.57.99-1.02,3.14-2.6,4.09-1.98.84.54.95,1.52.82,2.45-1.59-.53-3.33-.36-4.91.1ZM265.53,292.24c-2.07-.8-4.39-.31-6.39.59.2-.29.41-.59.61-.92h0c2.03-1.34,5-2.34,5.77-1.6.39.37.29,1.13,0,1.93ZM260.84,279.92c-.1-.3-.2-.6-.31-.89,2.35-1.23,9.1-4.95,14.43-9.62.29,0,.59-.01.88-.02-.79,3.25-1.63,6.49-2.52,9.7-1.62.01-3.27.04-4.93.06-2.55-1.55-5.37-.66-7.54.76ZM336.69,220.41c-2.43,27.85-31.33,62.63-50.38,76.03-10.5,7.38-23.83,13.52-36.96,18.93-.13-2.27-.3-4.55-.51-6.82,2.65-.5,4.59-1.21,5.71-1.7,2.17.8,7.06,2.04,11.08-1.01.58-.44,1.09-.91,1.54-1.4.84-.47,1.79-1.12,2.75-2.01,1.95.03,3.84.05,5.64.06,0,0-.48-2.49-2.48-4.12.81-1.42,1.54-3.1,2.12-5.11.8-2.77,1.56-5.43,2.29-8.05,4.52-.22,8.86-.33,12.93-.31-.72,2.12-1.47,4.24-2.25,6.34,0,0,2.91-1.09,6.37-6.27,1.3.04,2.57.1,3.8.18,0,0-.6-1.64-2-3.19,1.62-3.01,3.27-6.96,4.74-12.12,2.53.16,4.97.37,7.29.62,0,0,.19-4.72-5.89-5.91.84-3.32,1.58-6.47,2.25-9.49,4.36.39,8.22.84,11.59,1.31,0,0-.51-5.99-9.15-6.53-.43-.03-.88-.05-1.33-.08.74-3.65,1.39-7.16,2.02-10.63,5.19.38,9.84.81,13.73,1.27-.73,3.38-1.52,6.76-2.35,10.12,0,0,5.59-5.33,7.52-9.41,1.03.16,1.97.33,2.8.5,0,0,.06-1.47-2.01-3.18.98-4.71,1.86-9.42,2.65-14.12.62.1,1.25.2,1.84.3,0,0-.34-1.23-1.45-2.65.01-.07.02-.14.03-.21.6-3.79-3.76-12.03-3.76-12.03-.36,2.9-.78,5.82-1.22,8.73-1-.36-2.12-.64-3.43-.76-3.17-.31-6.61-.64-10.25-.95.69-4.36,1.09-7.98,1.26-10.98,5.24.32,10.03.66,13.92,1.02,0,0-2.06-4.87-10.37-5.55-1.16-.1-2.31-.19-3.45-.28-.29-10.6-4.22-9.91-4.22-9.91-.21,2.57-.5,5.78-.89,9.5-5.71-.45-11.16-.86-16.16-1.23-.08-7.97-4.69-8.76-4.69-8.76-.14,2.16-.34,5-.62,8.37-6.3-.45-11.62-.81-15.51-1.06-1.04-2.57-4.05-2.7-4.05-2.7,0,.06-.06.92-.19,2.44-1.45-.09-2.35-.13-2.58-.13l-1.64,6.48c1.08,0,2.31,0,3.63.02-.22,2.16-.48,4.67-.8,7.49-1.85-1.08-3.46-1.97-4.66-2.63l.06-.33-1.43-.84c-.25-.15-3.94-2.31-9.62-4.95,6.43-3.92,20.92-12.49,34.11-16.32l.09-.03c4.59-1.5,12.48-2.81,20.87-2.02,6.6.63,15.93,2.84,22.89,9.81,6.77,6.78,9.73,15.61,8.8,26.23ZM308.91,233.37c.57-3.17,1.16-6.35,1.8-9.64.12-.6.23-1.19.34-1.77,5.06.47,9.68,1.01,13.78,1.57-.69,4.1-1.44,8.2-2.28,12.3-2.65-.93-6.29-1.74-11.32-2.24-.82-.08-1.58-.15-2.33-.22Z"/>
        <path d="M212.63,71.47c5.04,6.55-.66,11.46-1.33,12.11l3.19,4.46c3.4-3.2,8.19-11.39,1.95-19.5-2.77-3.6-6.99-5.11-12.22-4.37-3.66.52-6.56,2-6.68,2.06l2.26,3.4c1.69-.75,8.69-3.55,12.83,1.83Z"/>
        <path d="M108.4,70.91l1.98-3.57c-.13-.05-3.14-1.29-6.82-1.52-5.27-.32-9.36,1.52-11.83,5.34-5.56,8.58-.14,16.36,3.51,19.28l2.82-4.7c-.72-.59-6.79-5.03-2.3-11.96,3.69-5.7,10.9-3.47,12.64-2.86Z"/>
        <path d="M180.4,80.56c.09,0,.17,0,.26,0,9.68.17,14.86,7.42,14.86,7.42l2.18-.62c-.09-.3-.94-3.03-3.41-5.82-2.32-2.61-6.56-5.76-13.54-5.88-.12,0-.24,0-.36,0-10.64,0-15.48,8.46-16.56,12.98l4.85,1.13c.09-.38,2.39-9.21,11.7-9.21Z"/>
        <path d="M113.94,89.65c.09-.38,2.3-9.2,11.7-9.2.09,0,.18,0,.27,0,9.67.17,14.25,7.59,14.25,7.59l2.79-.79c-.09-.3-.94-3.03-3.41-5.82-2.32-2.61-6.56-5.76-13.54-5.88-.12,0-.24,0-.36,0-10.63,0-15.47,8.46-16.55,12.98l4.86,1.12Z"/>
        <rect x="154.79" y="163.36" width="1.92" height="24.34" transform="translate(-5.15 4.71) rotate(-1.7)"/>
      </g>
    </g>
  </g>
</svg>